<svg version="1.1" xmlns="http://www.w3.org/2000/svg" xmlns:xlink="http://www.w3.org/1999/xlink" width="598.11412" height="267.55129" viewBox="0,0,598.11412,267.55129"><g transform="translate(-6,-49.8331)"><g data-paper-data="{&quot;isPaintingLayer&quot;:true}" fill-rule="nonzero" stroke-linejoin="miter" stroke-miterlimit="10" stroke-dasharray="" stroke-dashoffset="0" style="mix-blend-mode: normal"><path d="M296.30631,315.88588v-87.08708h307.80781v87.08709z" fill="#9c9c9c" stroke="none" stroke-width="0" stroke-linecap="butt"></path><path d="M320.82583,314.87988v-68.9885h259.75976v68.9885z" data-paper-data="{&quot;index&quot;:null}" fill="#000000" stroke="none" stroke-width="0" stroke-linecap="butt"></path><path d="M385.84724,229.87507v-9.22767h138.415v9.22767z" fill="#e3e1e8" stroke="none" stroke-width="0" stroke-linecap="butt"></path><path d="M405.68672,223.41571v-8.76628h98.73604v8.76628z" fill="#e3e1e8" stroke="none" stroke-width="0" stroke-linecap="butt"></path><path d="M372.92851,216.03357v-90.89252h162.86832v90.89252z" fill="#e3e1e8" stroke="none" stroke-width="0" stroke-linecap="butt"></path><path d="M384.00171,197.11686v-62.28675h142.10607v62.28675z" fill="#000000" stroke="none" stroke-width="0" stroke-linecap="butt"></path><text transform="translate(443.52016,207.9946) scale(0.23701,0.23701)" font-size="40" xml:space="preserve" fill="#000000" fill-rule="nonzero" stroke="none" stroke-width="1" stroke-linecap="butt" stroke-linejoin="miter" stroke-miterlimit="10" stroke-dasharray="" stroke-dashoffset="0" font-family="Pixel" font-weight="normal" text-anchor="start" style="mix-blend-mode: normal"><tspan x="0" dy="0">Fnap</tspan></text><path d="M6,214.91129v-36.66667h30.66667v36.66667z" fill="#cecece" stroke="#ff0000" stroke-width="0" stroke-linecap="butt"></path><path d="M8.66667,205.24462v-24.66666h25.66666v24.66666z" fill="#000000" stroke="none" stroke-width="0" stroke-linecap="butt"></path><text transform="translate(9.33334,212.32796) scale(0.20387,0.20387)" font-size="40" xml:space="preserve" fill="#ffffff" fill-rule="nonzero" stroke="none" stroke-width="1" stroke-linecap="butt" stroke-linejoin="miter" stroke-miterlimit="10" stroke-dasharray="" stroke-dashoffset="0" font-family="Pixel" font-weight="normal" text-anchor="start" style="mix-blend-mode: normal"><tspan x="0" dy="0">LIGHT</tspan></text><g><path d="M47.58559,317.38439v-265.76576h178.67868v265.76577z" fill="#000000" stroke="none" stroke-width="0" stroke-linecap="butt"></path><path d="M47.5,74.25v-23h179.35v23z" fill="#fff700" stroke="#000000" stroke-width="0" stroke-linecap="butt"></path><path d="M70.53754,58.5l-0.5,38" fill="none" stroke="#000000" stroke-width="15" stroke-linecap="round"></path><path d="M115.53754,81v-22" fill="none" stroke="#000000" stroke-width="15" stroke-linecap="round"></path><path d="M161.53754,77.5v-18" fill="none" stroke="#000000" stroke-width="15" stroke-linecap="round"></path><path d="M201.53754,59.5l-0.5,14" fill="none" stroke="#000000" stroke-width="15" stroke-linecap="round"></path><path d="M135.875,103.625l4.5,-14.75" fill="none" stroke="#000000" stroke-width="2.5" stroke-linecap="round"></path><path d="M49.125,79.75l-0.5,-27l171.70834,-1.66667l4.54166,0.16667" fill="none" stroke="#000000" stroke-width="2.5" stroke-linecap="round"></path><path d="M115.625,194.375l8.75,2.75" fill="none" stroke="#000000" stroke-width="2.5" stroke-linecap="round"></path><path d="M225.125,77l1.25,-25.5" fill="none" stroke="#000000" stroke-width="2.5" stroke-linecap="round"></path><path d="M53.08333,314.66667v-15.33333h26.06667v15.33333z" fill="#fff700" stroke="none" stroke-width="0" stroke-linecap="butt"></path><path d="M82.41666,314.66667v-15.33333h26.06667v15.33333z" fill="#fff700" stroke="none" stroke-width="0" stroke-linecap="butt"></path><path d="M111.75,314.33333v-15.33333h26.06667v15.33333z" fill="#fff700" stroke="none" stroke-width="0" stroke-linecap="butt"></path><path d="M141.41667,314.66667v-15.33333h25.4v15.33333z" fill="#fff700" stroke="none" stroke-width="0" stroke-linecap="butt"></path><path d="M169.41667,314.66667v-15.33333h25.73334v15.33333z" fill="#fff700" stroke="none" stroke-width="0" stroke-linecap="butt"></path><path d="M197.75,315v-15.33333h24.73334v15.33333z" fill="#fff700" stroke="none" stroke-width="0" stroke-linecap="butt"></path></g><g stroke-linecap="butt"><path d="M6,172.57796v-36.66667h30.66667v36.66667z" fill="#cecece" stroke="#ff0000" stroke-width="0"></path><path d="M9,162.91129v-24.66666h25.66667v24.66666z" fill="#ff0000" stroke="none" stroke-width="0"></path><text transform="translate(9.33334,170.32796) scale(0.20387,0.20387)" font-size="40" xml:space="preserve" fill="#ffffff" fill-rule="nonzero" stroke="none" stroke-width="1" stroke-linecap="butt" stroke-linejoin="miter" stroke-miterlimit="10" stroke-dasharray="" stroke-dashoffset="0" font-family="Pixel" font-weight="normal" text-anchor="start" style="mix-blend-mode: normal"><tspan x="0" dy="0">DOOR</tspan></text></g></g></g></svg>