<svg version="1.1" xmlns="http://www.w3.org/2000/svg" xmlns:xlink="http://www.w3.org/1999/xlink" width="180.27313" height="267.55129" viewBox="0,0,180.27313,267.55129"><g transform="translate(-150.17687,-45.59924)"><g data-paper-data="{&quot;isPaintingLayer&quot;:true}" fill-rule="nonzero" stroke-linejoin="miter" stroke-miterlimit="10" stroke-dasharray="" stroke-dashoffset="0" style="mix-blend-mode: normal"><path d="M150.41059,313.15053v-265.76576h178.67868v265.76577z" fill="#000000" stroke="none" stroke-width="0" stroke-linecap="butt"></path><path d="M150.325,70.01614v-23h179.35v23z" fill="#fff700" stroke="#000000" stroke-width="0" stroke-linecap="butt"></path><path d="M172.86254,92.26614l0.5,-38" fill="none" stroke="#000000" stroke-width="15" stroke-linecap="round"></path><path d="M218.36254,76.76614v-22" fill="none" stroke="#000000" stroke-width="15" stroke-linecap="round"></path><path d="M264.36254,73.26614v-18" fill="none" stroke="#000000" stroke-width="15" stroke-linecap="round"></path><path d="M303.86254,69.26614l0.5,-14" fill="none" stroke="#000000" stroke-width="15" stroke-linecap="round"></path><path d="M238.7,99.39114l4.5,-14.75" fill="none" stroke="#000000" stroke-width="2.5" stroke-linecap="round"></path><path d="M151.95,75.51614l-0.5,-27l171.70834,-1.66667l4.54166,0.16667" fill="none" stroke="#000000" stroke-width="2.5" stroke-linecap="round"></path><path d="M218.45,190.14114l8.75,2.75" fill="none" stroke="#000000" stroke-width="2.5" stroke-linecap="round"></path><path d="M327.95,72.76614l1.25,-25.5" fill="none" stroke="#000000" stroke-width="2.5" stroke-linecap="round"></path><path d="M155.90833,310.4328v-15.33333h26.06667v15.33333z" fill="#fff700" stroke="none" stroke-width="0" stroke-linecap="butt"></path><path d="M185.24166,310.4328v-15.33333h26.06667v15.33333z" fill="#fff700" stroke="none" stroke-width="0" stroke-linecap="butt"></path><path d="M214.575,310.09947v-15.33333h26.06667v15.33333z" fill="#fff700" stroke="none" stroke-width="0" stroke-linecap="butt"></path><path d="M244.24167,310.4328v-15.33333h25.4v15.33333z" fill="#fff700" stroke="none" stroke-width="0" stroke-linecap="butt"></path><path d="M272.24167,310.4328v-15.33333h25.73334v15.33333z" fill="#fff700" stroke="none" stroke-width="0" stroke-linecap="butt"></path><path d="M300.575,310.76614v-15.33333h24.73334v15.33333z" fill="#fff700" stroke="none" stroke-width="0" stroke-linecap="butt"></path><g stroke-linecap="butt"><path d="M224.66667,198.23512v-36.66667h30.66667v36.66667z" fill="#cecece" stroke="#ff0000" stroke-width="0"></path><path d="M227.66667,188.56845v-24.66666h25.66667v24.66666z" fill="#ff0000" stroke="none" stroke-width="0"></path><text transform="translate(228.00001,195.98512) scale(0.20387,0.20387)" font-size="40" xml:space="preserve" fill="#ffffff" fill-rule="nonzero" stroke="none" stroke-width="1" stroke-linecap="butt" stroke-linejoin="miter" stroke-miterlimit="10" stroke-dasharray="" stroke-dashoffset="0" font-family="Pixel" font-weight="normal" text-anchor="start" style="mix-blend-mode: normal"><tspan x="0" dy="0">DOOR</tspan></text></g></g></g></svg>