<svg version="1.1" xmlns="http://www.w3.org/2000/svg" xmlns:xlink="http://www.w3.org/1999/xlink" width="180.27313" height="267.55129" viewBox="0,0,180.27313,267.55129"><g transform="translate(-47.35187,-49.83311)"><g data-paper-data="{&quot;isPaintingLayer&quot;:true}" fill-rule="nonzero" stroke-linejoin="miter" stroke-miterlimit="10" stroke-dasharray="" stroke-dashoffset="0" style="mix-blend-mode: normal"><path d="M47.58559,317.38439v-265.76576h178.67868v265.76577z" fill="#000000" stroke="none" stroke-width="0" stroke-linecap="butt"></path><path d="M47.5,74.25v-23h179.35v23z" fill="#fff700" stroke="#000000" stroke-width="0" stroke-linecap="butt"></path><path d="M70.53754,58.5l-0.5,38" fill="none" stroke="#000000" stroke-width="15" stroke-linecap="round"></path><path d="M115.53754,81v-22" fill="none" stroke="#000000" stroke-width="15" stroke-linecap="round"></path><path d="M161.53754,77.5v-18" fill="none" stroke="#000000" stroke-width="15" stroke-linecap="round"></path><path d="M201.53754,59.5l-0.5,14" fill="none" stroke="#000000" stroke-width="15" stroke-linecap="round"></path><path d="M135.875,103.625l4.5,-14.75" fill="none" stroke="#000000" stroke-width="2.5" stroke-linecap="round"></path><path d="M49.125,79.75l-0.5,-27l171.70834,-1.66667l4.54166,0.16667" fill="none" stroke="#000000" stroke-width="2.5" stroke-linecap="round"></path><path d="M115.625,194.375l8.75,2.75" fill="none" stroke="#000000" stroke-width="2.5" stroke-linecap="round"></path><path d="M225.125,77l1.25,-25.5" fill="none" stroke="#000000" stroke-width="2.5" stroke-linecap="round"></path><path d="M53.08333,314.66667v-15.33333h26.06667v15.33333z" fill="#fff700" stroke="none" stroke-width="0" stroke-linecap="butt"></path><path d="M82.41666,314.66667v-15.33333h26.06667v15.33333z" fill="#fff700" stroke="none" stroke-width="0" stroke-linecap="butt"></path><path d="M111.75,314.33333v-15.33333h26.06667v15.33333z" fill="#fff700" stroke="none" stroke-width="0" stroke-linecap="butt"></path><path d="M141.41667,314.66667v-15.33333h25.4v15.33333z" fill="#fff700" stroke="none" stroke-width="0" stroke-linecap="butt"></path><path d="M169.41667,314.66667v-15.33333h25.73334v15.33333z" fill="#fff700" stroke="none" stroke-width="0" stroke-linecap="butt"></path><path d="M197.75,315v-15.33333h24.73334v15.33333z" fill="#fff700" stroke="none" stroke-width="0" stroke-linecap="butt"></path></g></g></svg>